# xmcd
#
# Track frame offsets: 
#        150
#        20644
#        43828
#
# Disc length: 905 seconds
#
# Revision: 0
# Processed by: cddbd v1.5.1PL0 Copyright (c) Steve Scherf et al.
# Submitted via: ExactAudioCopy v0.95b1
#
DISCID=21038703
DTITLE=satoko tatemichi - takaramono
DYEAR=1900
DGENRE=JPop
TTITLE0=takaramono
TTITLE1=A Little Dreamer
TTITLE2=mirror
EXTD=
EXTT0=takaramono
EXTT1=
EXTT2=
PLAYORDER=
